<?xml version="1.0" encoding="UTF-8"?>
<!DOCTYPE svg PUBLIC "-//W3C//DTD SVG 1.0//EN" "http://www.w3.org/TR/2001/REC-SVG-20010904/DTD/svg10.dtd">
<!-- Creator: CorelDRAW -->
<svg xmlns="http://www.w3.org/2000/svg" xml:space="preserve" width="336.505mm" height="72.1288mm" version="1.0" style="shape-rendering:geometricPrecision; text-rendering:geometricPrecision; image-rendering:optimizeQuality; fill-rule:evenodd; clip-rule:evenodd"
viewBox="0 0 33737.22 7231.48"
 xmlns:xlink="http://www.w3.org/1999/xlink"
 xmlns:xodm="http://www.corel.com/coreldraw/odm/2003">
 <defs>
  <style type="text/css">
   <![CDATA[
    .fil1 {fill:white}
    .fil0 {fill:white;fill-rule:nonzero}
   ]]>
  </style>
 </defs>
 <g id="Capa_x0020_1">
  <metadata id="CorelCorpID_0Corel-Layer"/>
  <g id="_105553446038656">
   <polygon class="fil0" points="13285.55,2929.36 13285.55,3773.45 12789.94,3773.45 12789.94,5539.06 11783.23,5539.06 11783.23,3773.45 11291.49,3773.45 11291.49,2929.36 "/>
   <path id="1" class="fil0" d="M14663.97 5539.06l-34.85 -402.69 -371.71 0 -34.85 402.69 -1026.07 0 391.07 -2609.7 1715.28 0 387.2 2609.7 -1026.07 0zm-352.35 -1033.81l263.29 0 -61.95 -735.67 -139.39 0 -61.95 735.67z"/>
   <path id="2" class="fil0" d="M17664.74 4400.71c236.19,11.62 406.56,61.95 511.09,154.88 104.55,96.8 158.75,236.19 158.75,422.05l0 561.43 -1049.3 0 0 -514.97c0,-96.8 -42.59,-147.13 -127.77,-147.13l-251.68 0 0 662.1 -1018.33 0 0 -2609.7 1533.29 0c298.15,0 518.84,58.08 662.1,174.24 143.27,116.16 216.84,298.15 216.84,545.94l0 104.55c0,185.85 -54.21,329.12 -158.76,433.66 -104.54,104.55 -263.29,162.63 -476.24,174.24l0 38.72zm-758.9 -228.45l243.93 0c50.34,0 85.19,-11.61 104.55,-34.84 19.36,-19.36 27.1,-61.96 27.1,-120.04l0 -232.32c0,-50.33 -11.62,-85.18 -30.98,-100.67 -19.36,-15.49 -58.08,-23.23 -108.41,-23.23l-236.19 0 0 511.09z"/>
   <path id="3" class="fil0" d="M20378.98 4400.71c236.19,11.62 406.56,61.95 511.09,154.88 104.55,96.8 158.75,236.19 158.75,422.05l0 561.43 -1049.3 0 0 -514.97c0,-96.8 -42.59,-147.13 -127.77,-147.13l-251.68 0 0 662.1 -1018.33 0 0 -2609.7 1533.29 0c298.15,0 518.84,58.08 662.1,174.24 143.27,116.16 216.84,298.15 216.84,545.94l0 104.55c0,185.85 -54.21,329.12 -158.76,433.66 -104.54,104.55 -263.29,162.63 -476.24,174.24l0 38.72zm-758.9 -228.45l243.93 0c50.34,0 85.19,-11.61 104.55,-34.84 19.36,-19.36 27.1,-61.96 27.1,-120.04l0 -232.32c0,-50.33 -11.62,-85.18 -30.98,-100.67 -19.36,-15.49 -58.08,-23.23 -108.41,-23.23l-236.19 0 0 511.09z"/>
   <path id="4" class="fil0" d="M22667.3 5539.06l-34.85 -402.69 -371.71 0 -34.85 402.69 -1026.07 0 391.07 -2609.7 1715.28 0 387.2 2609.7 -1026.07 0zm-352.35 -1033.81l263.29 0 -61.95 -735.67 -139.39 0 -61.95 735.67z"/>
   <path id="5" class="fil0" d="M25176.33 4389.1l0 -677.59c-42.59,-3.88 -112.28,-7.75 -209.08,-7.75 -81.32,0 -127.78,15.49 -147.14,42.59 -19.36,27.11 -30.98,77.44 -30.98,143.27l0 638.87c0,61.95 3.88,104.54 11.62,131.65 7.74,27.1 30.98,50.33 65.82,61.95 34.85,11.61 92.93,19.36 174.24,19.36l1037.69 -3.87 0 755.03c-112.29,27.1 -282.66,46.46 -511.09,65.82 -232.32,15.49 -437.54,23.23 -611.77,23.23 -317.5,0 -561.43,-34.85 -727.93,-100.67 -170.36,-65.82 -290.4,-174.24 -356.22,-325.25 -69.7,-147.13 -104.54,-356.22 -104.54,-623.38l0 -627.25c0,-263.3 34.84,-468.51 104.54,-615.64 69.7,-143.27 189.73,-251.68 360.1,-317.51 166.49,-65.82 410.43,-96.8 724.05,-96.8 162.62,0 360.1,15.49 592.41,42.6 228.44,30.97 414.3,69.69 549.81,112.28l0 1359.07 -921.53 0z"/>
   <path id="6" class="fil0" d="M26310.81 4001.9c0,-309.76 30.97,-542.07 96.8,-700.83 61.95,-154.88 178.11,-263.29 352.35,-329.12 170.37,-65.82 433.66,-96.8 786,-96.8 352.36,0 615.64,30.98 789.88,96.8 174.24,65.83 290.4,174.24 356.23,329.12 61.95,158.76 92.92,391.08 92.92,700.83l0 468.5c0,313.63 -30.97,545.94 -96.8,700.82 -65.82,158.75 -185.85,267.17 -360.09,329.12 -174.24,61.95 -433.67,92.93 -782.14,92.93 -352.35,0 -611.76,-30.98 -782.13,-92.93 -174.24,-61.95 -290.4,-170.37 -356.22,-325.25 -65.83,-154.88 -96.8,-391.07 -96.8,-704.69l0 -468.5zm1022.19 549.81c0,58.08 3.88,96.8 15.49,123.9 7.75,27.11 27.11,46.47 58.08,58.08 27.11,11.62 73.57,19.36 139.39,19.36 65.83,0 112.29,-7.74 143.27,-19.36 27.1,-11.61 46.46,-30.97 58.08,-58.08 7.74,-27.1 11.61,-65.82 11.61,-123.9l0 -638.87c0,-58.08 -3.87,-96.8 -11.61,-123.9 -11.62,-27.11 -30.98,-46.47 -58.08,-58.08 -30.98,-11.62 -77.44,-15.49 -143.27,-15.49 -65.82,0 -112.28,3.87 -139.39,15.49 -30.97,11.61 -50.33,30.97 -58.08,58.08 -11.61,27.1 -15.49,65.82 -15.49,123.9l0 638.87z"/>
   <path id="7" class="fil0" d="M30821.65 4400.71c236.19,11.62 406.56,61.95 511.09,154.88 104.55,96.8 158.75,236.19 158.75,422.05l0 561.43 -1049.3 0 0 -514.97c0,-96.8 -42.59,-147.13 -127.77,-147.13l-251.68 0 0 662.1 -1018.33 0 0 -2609.7 1533.29 0c298.15,0 518.84,58.08 662.1,174.24 143.27,116.16 216.84,298.15 216.84,545.94l0 104.55c0,185.85 -54.21,329.12 -158.76,433.66 -104.54,104.55 -263.29,162.63 -476.24,174.24l0 38.72zm-758.9 -228.45l243.93 0c50.34,0 85.19,-11.61 104.55,-34.84 19.36,-19.36 27.1,-61.96 27.1,-120.04l0 -232.32c0,-50.33 -11.62,-85.18 -30.98,-100.67 -19.36,-15.49 -58.08,-23.23 -108.41,-23.23l-236.19 0 0 511.09z"/>
   <polygon id="8" class="fil0" points="31758.65,2929.36 33737.22,2929.36 33737.22,3665.04 32780.85,3665.04 32780.85,3936.07 33702.37,3936.07 33702.37,4547.85 32780.85,4547.85 32780.85,4807.26 33737.22,4807.26 33737.22,5539.06 31758.65,5539.06 "/>
   <g>
    <rect class="fil1" x="-0.01" y="2900.11" width="449.12" height="2629.03"/>
    <rect class="fil1" x="597.67" y="2741.45" width="449.12" height="1086.09"/>
    <rect class="fil1" x="1334.35" y="2621.53" width="367.25" height="1032.59"/>
    <rect class="fil1" x="1996.77" y="2359.76" width="561.61" height="1290.92"/>
    <rect class="fil1" x="4257.28" y="2354.91" width="447.12" height="3457.12"/>
    <rect class="fil1" x="5107.07" y="2347.87" width="447.12" height="3464.17"/>
    <rect class="fil1" x="5606.91" y="2.84" width="447.12" height="862.96"/>
    <rect class="fil1" x="6802.27" y="0" width="854.89" height="2125.94"/>
    <rect class="fil1" x="8037.06" y="1.02" width="467.52" height="2357.7"/>
    <rect class="fil1" x="4884.14" y="2.87" width="233.22" height="2119.04"/>
    <rect class="fil1" x="6287.99" y="2.85" width="447.12" height="863.47"/>
    <rect class="fil1" x="10616.12" y="4681.62" width="439.71" height="844.82"/>
    <rect class="fil1" x="3030.21" y="2354.91" width="747.49" height="1472.63"/>
    <rect class="fil1" x="5849.86" y="2334.59" width="223.56" height="642.15"/>
    <rect class="fil1" x="8748.21" y="4.87" width="390.08" height="810.36"/>
    <path class="fil1" d="M2278.33 3837.36c898.33,0 1626.58,759.8 1626.58,1697.06 0,937.26 -728.25,1697.05 -1626.58,1697.05 -898.35,0 -1626.6,-759.79 -1626.6,-1697.05 0,-937.26 728.25,-1697.06 1626.6,-1697.06zm-773.05 1649.21c0,384.28 299.15,697.98 677.15,722.71 -13.85,0.71 -27.44,2.09 -41.49,2.09 -214.13,0 -408.65,-82.66 -554.79,-217.1 150.38,190.5 382.76,313.19 644.32,313.19 453.44,0 820.89,-367.57 820.89,-820.88 0,-239.15 -102.86,-453.83 -266.11,-603.87 110.34,139.82 176.66,315.83 176.66,507.8 0,32.5 -2.44,64.51 -6.24,96.08 0,-400.61 -324.7,-725.18 -725.21,-725.18 -400.5,0 -725.2,324.57 -725.2,725.18z"/>
    <path class="fil1" d="M8211.45 2502.48c1252.41,0 2267.68,1058.17 2267.68,2363.47 0,1305.31 -1015.27,2363.47 -2267.68,2363.47 -1252.41,0 -2267.7,-1058.16 -2267.7,-2363.47 0,-1305.3 1015.29,-2363.47 2267.7,-2363.47zm-1098.2 2320.66c0,546.98 429.04,992.57 968.82,1021.73 -23.44,1.38 -46.99,2.35 -70.75,2.35 -301.27,0 -575.69,-115.03 -781.91,-303.29 212.55,267.36 540.21,438.95 908.3,438.95 640.53,0 1159.72,-519.2 1159.72,-1159.73 0,-339.24 -145.7,-644.44 -377.89,-856.55 157.33,197.99 251.53,448.34 251.53,720.78 0,49.18 -3.39,97.53 -9.31,145.16 0,-3.17 0.42,-6.23 0.42,-9.39 0,-565.78 -458.68,-1024.45 -1024.46,-1024.45 -565.75,0 -1024.45,458.68 -1024.45,1024.45z"/>
    <path class="fil0" d="M5364.61 2122.7l-250.44 0 0 -102.84 122.34 0c21.27,0 40.86,6.18 57.88,16.26l44.98 -59.17 23.1 -367.15 -74.55 -59.41c-23.41,-18.62 -27.22,-52.66 -8.69,-75.97 18.76,-23.41 52.69,-27.3 76.1,-8.66l579.87 462.41c23.41,18.66 27.22,52.7 8.57,75.98 -10.63,13.44 -26.45,20.36 -42.27,20.36 -11.82,0 -23.75,-3.78 -33.69,-11.71l-52.79 -42.14 -392.1 75.19 -58.31 76.86zm86.05 -192.26l14.97 -238.28 238.09 189.74 -253.06 48.54z"/>
    <rect class="fil1" x="9981.01" y="2126.77" width="223.56" height="849.97"/>
    <rect class="fil1" x="9610.76" y="2125.94" width="223.56" height="663.4"/>
   </g>
  </g>
 </g>
</svg>
